<svg width="50" height="50" viewBox="0 0 50 50" fill="none" xmlns="http://www.w3.org/2000/svg">
<rect width="29" height="28" transform="translate(14 16)" fill="white"/>
<path d="M41.369 4.16666H8.63095C6.16629 4.16666 4.16666 6.16629 4.16666 8.63095V41.369C4.16666 43.8337 6.16629 45.8333 8.63095 45.8333H41.369C43.8337 45.8333 45.8333 43.8337 45.8333 41.369V8.63095C45.8333 6.16629 43.8337 4.16666 41.369 4.16666ZM26.8415 36.6629C26.8415 40.718 24.4606 42.5688 20.9914 42.5688C17.8571 42.5688 16.0435 40.9505 15.1135 38.9881L18.3036 37.0629C18.9174 38.151 19.4754 39.0718 20.824 39.0718C22.1075 39.0718 22.926 38.5696 22.926 36.6071V23.298H26.8415V36.6629ZM36.1049 42.5688C32.4684 42.5688 30.1153 40.8389 28.9714 38.5696L32.1615 36.7281C32.9985 38.0952 34.096 39.109 36.0212 39.109C37.6395 39.109 38.6812 38.2999 38.6812 37.1745C38.6812 35.8352 37.6209 35.3609 35.8259 34.5703L34.8493 34.1518C32.0219 32.952 30.1525 31.436 30.1525 28.2459C30.1525 25.3069 32.394 23.0748 35.8817 23.0748C38.3743 23.0748 40.16 23.9397 41.4435 26.2091L38.3929 28.1622C37.7232 26.9624 36.9978 26.4881 35.8724 26.4881C34.7284 26.4881 34.003 27.2135 34.003 28.1622C34.003 29.3341 34.7284 29.8084 36.4118 30.5432L37.3884 30.9617C40.718 32.3847 42.5874 33.8449 42.5874 37.1187C42.5874 40.6343 39.8158 42.5688 36.1049 42.5688Z" fill="#D9C727"/>
</svg>
