<svg width="50" height="40" viewBox="0 0 50 40" fill="none" xmlns="http://www.w3.org/2000/svg">
<g clip-path="url(#clip0_502_39)">
<path d="M7.14286 4.52381C7.14286 2.55136 5.54387 0.952377 3.57143 0.952377C1.59898 0.952377 0 2.55136 0 4.52381V18.8095C0 20.782 1.59898 22.3809 3.57143 22.3809C5.54387 22.3809 7.14286 20.782 7.14286 18.8095V4.52381Z" fill="#FFCB36"/>
<path d="M35.7143 4.52381C35.7143 2.55136 34.1153 0.952377 32.1429 0.952377C30.1704 0.952377 28.5714 2.55136 28.5714 4.52381V35.4762C28.5714 37.4486 30.1704 39.0476 32.1429 39.0476C34.1153 39.0476 35.7143 37.4486 35.7143 35.4762V4.52381Z" fill="#007D97"/>
<path d="M21.4286 4.52381C21.4286 2.55136 19.8296 0.952377 17.8571 0.952377C15.8847 0.952377 14.2857 2.55136 14.2857 4.52381V6.90476C14.2857 8.8772 15.8847 10.4762 17.8571 10.4762C19.8296 10.4762 21.4286 8.8772 21.4286 6.90476V4.52381Z" fill="#2EAD6D"/>
<path d="M21.4286 21.1905C21.4286 19.218 19.8296 17.619 17.8571 17.619C15.8847 17.619 14.2857 19.218 14.2857 21.1905V35.4762C14.2857 37.4486 15.8847 39.0476 17.8571 39.0476C19.8296 39.0476 21.4286 37.4486 21.4286 35.4762V21.1905Z" fill="#E31D65"/>
<path d="M50 4.52381C50 2.55136 48.401 0.952377 46.4286 0.952377C44.4561 0.952377 42.8571 2.55136 42.8571 4.52381V18.8095C42.8571 20.782 44.4561 22.3809 46.4286 22.3809C48.401 22.3809 50 20.782 50 18.8095V4.52381Z" fill="#E31D65"/>
<path d="M7.14286 33.0952C7.14286 31.1228 5.54387 29.5238 3.57143 29.5238C1.59898 29.5238 0 31.1228 0 33.0952V35.4762C0 37.4486 1.59898 39.0476 3.57143 39.0476C5.54387 39.0476 7.14286 37.4486 7.14286 35.4762V33.0952Z" fill="#FF7C35"/>
<path d="M50 33.0952C50 31.1228 48.401 29.5238 46.4286 29.5238C44.4561 29.5238 42.8571 31.1228 42.8571 33.0952V35.4762C42.8571 37.4486 44.4561 39.0476 46.4286 39.0476C48.401 39.0476 50 37.4486 50 35.4762V33.0952Z" fill="#553BB8"/>
</g>
<defs>
<clipPath id="clip0_502_39">
<rect width="50" height="38.0952" fill="white" transform="translate(0 0.952377)"/>
</clipPath>
</defs>
</svg>
