<svg width="45" height="46" viewBox="0 0 45 46" fill="none" xmlns="http://www.w3.org/2000/svg">
<g clip-path="url(#clip0_501_19)">
<path d="M22.5 45.5C34.9264 45.5 45 35.4264 45 23C45 10.5736 34.9264 0.5 22.5 0.5C10.0736 0.5 0 10.5736 0 23C0 35.4264 10.0736 45.5 22.5 45.5Z" fill="#6332F6"/>
<path d="M28.53 30.635C28.53 29.825 28.3725 29.1275 28.0575 28.5425C27.7425 27.9575 27.315 27.4325 26.775 26.9675C26.235 26.5025 25.59 26.0825 24.84 25.7075C24.09 25.3325 23.28 24.935 22.41 24.515C21.39 24.035 20.3625 23.525 19.3275 22.985C18.2925 22.445 17.3625 21.815 16.5375 21.095C15.7125 20.375 15.045 19.5425 14.535 18.5975C14.025 17.6525 13.77 16.55 13.77 15.29C13.77 14.24 13.965 13.1975 14.355 12.1625C14.745 11.1275 15.315 10.205 16.065 9.395C16.815 8.585 17.7525 7.925 18.8775 7.415C20.0025 6.905 21.315 6.65 22.815 6.65C23.925 6.65 24.9525 6.7925 25.8975 7.0775C26.8425 7.3625 27.69 7.73 28.44 8.18C29.19 8.63 29.85 9.125 30.42 9.665C30.99 10.205 31.455 10.73 31.815 11.24L28.98 13.535C28.71 13.145 28.3725 12.755 27.9675 12.365C27.5625 11.975 27.0975 11.6225 26.5725 11.3075C26.0475 10.9925 25.47 10.7375 24.84 10.5425C24.21 10.3475 23.535 10.25 22.815 10.25C21.945 10.25 21.1875 10.385 20.5425 10.655C19.8975 10.925 19.35 11.285 18.9 11.735C18.45 12.185 18.1125 12.7025 17.8875 13.2875C17.6625 13.8725 17.55 14.465 17.55 15.065C17.55 15.815 17.715 16.4675 18.045 17.0225C18.375 17.5775 18.84 18.095 19.44 18.575C20.04 19.055 20.775 19.52 21.645 19.97C22.515 20.42 23.49 20.885 24.57 21.365C25.77 21.905 26.8575 22.4675 27.8325 23.0525C28.8075 23.6375 29.6325 24.275 30.3075 24.965C30.9825 25.655 31.5 26.435 31.86 27.305C32.22 28.175 32.4 29.195 32.4 30.365C32.4 31.745 32.1525 32.9825 31.6575 34.0775C31.1625 35.1725 30.48 36.1025 29.61 36.8675C28.74 37.6325 27.7125 38.2175 26.5275 38.6225C25.3425 39.0275 24.075 39.23 22.725 39.23C21.375 39.23 20.16 39.0425 19.08 38.6675C18 38.2925 17.04 37.7975 16.2 37.1825C15.36 36.5675 14.64 35.8625 14.04 35.0675C13.44 34.2725 12.96 33.47 12.6 32.66L15.75 30.77C16.02 31.4 16.3725 32.0075 16.8075 32.5925C17.2425 33.1775 17.745 33.695 18.315 34.145C18.885 34.595 19.5375 34.955 20.2725 35.225C21.0075 35.495 21.81 35.63 22.68 35.63C23.43 35.63 24.1575 35.525 24.8625 35.315C25.5675 35.105 26.19 34.79 26.73 34.37C27.27 33.95 27.705 33.4325 28.035 32.8175C28.365 32.2025 28.53 31.475 28.53 30.635Z" fill="white"/>
</g>
<defs>
<clipPath id="clip0_501_19">
<rect width="45" height="45" fill="white" transform="translate(0 0.5)"/>
</clipPath>
</defs>
</svg>
