<svg width="50" height="50" viewBox="0 0 50 50" fill="none" xmlns="http://www.w3.org/2000/svg">
<path d="M24.5 12C18.4998 12 14.7499 14.9992 13.2497 20.9972C15.5 17.9979 18.125 16.8736 21.1249 17.6232C22.8366 18.0508 24.06 19.2927 25.4144 20.6669C27.6202 22.9053 30.1733 25.496 35.7503 25.496C41.7499 25.496 45.5004 22.4968 47 16.4983C44.7503 19.4975 42.1252 20.6224 39.1249 19.8729C37.4137 19.4452 36.1903 18.2033 34.8359 16.8292C32.63 14.5907 30.0765 12 24.5 12ZM13.2497 25.496C7.25009 25.496 3.49962 28.4953 2 34.4938C4.24972 31.4945 6.87477 30.3697 9.87514 31.1198C11.5863 31.548 12.8097 32.7893 14.1641 34.1629C16.37 36.4014 18.9235 38.9926 24.5 38.9926C30.5002 38.9926 34.2501 35.9934 35.7503 29.9949C33.5 32.9942 30.875 34.119 27.8751 33.3689C26.1634 32.9418 24.94 31.6994 23.5856 30.3258C21.3798 28.0873 18.8267 25.496 13.2497 25.496Z" fill="#06B6D4"/>
</svg>
