<svg width="49" height="49" viewBox="0 0 49 49" fill="none" xmlns="http://www.w3.org/2000/svg">
<path d="M24.575 3.63757C13.1231 3.63757 3.83752 13.1639 3.83752 24.9028C3.83752 34.2994 9.78104 42.2612 18.0205 45.0755C18.1361 45.1006 18.254 45.1131 18.3723 45.1126C19.1407 45.1126 19.4369 44.5478 19.4369 44.0572C19.4369 43.548 19.4184 42.2149 19.4092 40.4374C18.7232 40.5982 18.0214 40.682 17.3169 40.6873C13.3268 40.6873 12.4195 37.586 12.4195 37.586C11.4752 35.1326 10.1143 34.4753 10.1143 34.4753C8.30905 33.207 10.1051 33.17 10.2439 33.17H10.2532C12.3362 33.3551 13.4286 35.3733 13.4286 35.3733C14.4655 37.1879 15.8542 37.6971 17.0947 37.6971C17.915 37.6807 18.7226 37.4914 19.4647 37.1416C19.6499 35.7714 20.1868 34.8364 20.7793 34.2994C16.1782 33.7625 11.3364 31.9387 11.3364 23.7918C11.3364 21.4681 12.1418 19.5703 13.4656 18.089C13.2527 17.5521 12.5399 15.3857 13.6693 12.4603C13.8208 12.424 13.9765 12.4084 14.1322 12.414C14.8821 12.414 16.5763 12.701 19.3721 14.6451C22.7693 13.6946 26.3622 13.6946 29.7594 14.6451C32.5553 12.701 34.2494 12.414 34.9993 12.414C35.155 12.4084 35.3107 12.424 35.4622 12.4603C36.5917 15.3857 35.8788 17.5521 35.6659 18.089C36.9897 19.5795 37.7952 21.4774 37.7952 23.7918C37.7952 31.9572 32.9441 33.7532 28.3244 34.2809C29.0651 34.9382 29.7316 36.2343 29.7316 38.2155C29.7316 41.0576 29.7038 43.3536 29.7038 44.0479C29.7038 44.5478 29.9908 45.1126 30.7592 45.1126C30.8836 45.1131 31.0077 45.1007 31.1296 45.0755C39.3783 42.2612 45.3125 34.2902 45.3125 24.9028C45.3125 13.1639 36.0269 3.63757 24.575 3.63757Z" fill="#2D3436"/>
</svg>
