<svg width="49" height="49" viewBox="0 0 49 49" fill="none" xmlns="http://www.w3.org/2000/svg">
<path d="M21.5895 12.7796L15.1895 2.11371C14.9264 1.67495 14.5541 1.31182 14.1089 1.0597C13.6637 0.807574 13.1608 0.675055 12.6492 0.675049H2.35909C1.1602 0.675049 0.458452 2.02391 1.14538 3.00617L11.4466 17.7224C14.198 15.1515 17.6975 13.387 21.5895 12.7796ZM46.7912 0.675049H36.5011C35.4605 0.675049 34.4958 1.22126 33.9607 2.11371L27.5608 12.7796C31.4528 13.387 34.9522 15.1515 37.7037 17.7215L48.0049 3.00617C48.6918 2.02391 47.9901 0.675049 46.7912 0.675049ZM24.5751 15.4876C15.5765 15.4876 8.28133 22.7827 8.28133 31.7813C8.28133 40.7799 15.5765 48.0751 24.5751 48.0751C33.5737 48.0751 40.8689 40.7799 40.8689 31.7813C40.8689 22.7827 33.5737 15.4876 24.5751 15.4876ZM33.1405 30.0464L29.629 33.4681L30.4594 38.3025C30.6075 39.169 29.6947 39.831 28.918 39.4218L24.5751 37.1397L20.2332 39.4218C19.4555 39.8337 18.5436 39.1681 18.6918 38.3025L19.5222 33.4681L16.0107 30.0464C15.3793 29.4317 15.7283 28.3587 16.5986 28.2328L21.4525 27.5255L23.6216 23.1262C23.8169 22.7299 24.1946 22.5346 24.5733 22.5346C24.9538 22.5346 25.3343 22.7327 25.5296 23.1262L27.6987 27.5255L32.5526 28.2328C33.4228 28.3587 33.7719 29.4317 33.1405 30.0464V30.0464Z" fill="#2D3436"/>
</svg>
