<svg width="90" height="89" viewBox="0 0 90 89" fill="none" xmlns="http://www.w3.org/2000/svg">
<path d="M44.9602 7.87622C24.6311 7.87622 8.16016 24.3472 8.16016 44.6762C8.16016 65.0053 24.6311 81.4762 44.9602 81.4762C65.2892 81.4762 81.7602 65.0053 81.7602 44.6762C81.7602 24.3472 65.2892 7.87622 44.9602 7.87622ZM44.9602 22.1214C52.1718 22.1214 58.0182 27.9678 58.0182 35.1795C58.0182 42.3911 52.1718 48.2375 44.9602 48.2375C37.7485 48.2375 31.9021 42.3911 31.9021 35.1795C31.9021 27.9678 37.7485 22.1214 44.9602 22.1214ZM44.9602 73.1666C36.2498 73.1666 28.4447 69.2195 23.2214 63.0465C26.0111 57.7936 31.4718 54.173 37.8376 54.173C38.1937 54.173 38.5498 54.2324 38.8911 54.3362C40.8202 54.9595 42.8382 55.3601 44.9602 55.3601C47.0821 55.3601 49.115 54.9595 51.0292 54.3362C51.3705 54.2324 51.7266 54.173 52.0827 54.173C58.4486 54.173 63.9092 57.7936 66.6989 63.0465C61.4756 69.2195 53.6705 73.1666 44.9602 73.1666Z" fill="#2D3436"/>
</svg>
